<?xml version="1.0" encoding="utf-8"?>
<!-- Generator: Adobe Illustrator 22.0.1, SVG Export Plug-In . SVG Version: 6.00 Build 0)  -->
<svg version="1.1" id="图层_1" xmlns="http://www.w3.org/2000/svg" xmlns:xlink="http://www.w3.org/1999/xlink" x="0px" y="0px"
	 viewBox="0 0 756 774" style="enable-background:new 0 0 756 774;" xml:space="preserve">
<style type="text/css">
	.st0{fill:#58A3DA;}
</style>
<g>
	<path class="st0" d="M380.1,458.1c-127.4,0-227.6-100.1-227.6-227.6C152.5,103.1,252.7,3,380.1,3c127.4,0,227.6,100.1,227.6,227.6
		C607.6,358,507.5,458.1,380.1,458.1L380.1,458.1z M380.1,412.6c100.1,0,182-81.9,182-182s-81.9-182-182-182s-182,81.9-182,182
		S280,412.6,380.1,412.6L380.1,412.6z M380.1,412.6"/>
	<path class="st0" d="M16,776.7c0-200.2,163.8-364.1,364.1-364.1c200.2,0,364.1,163.8,364.1,364.1h-45.5
		c0-177.5-141.1-318.6-318.6-318.6c-177.5,0-318.6,141.1-318.6,318.6H16z M16,776.7"/>
</g>
</svg>
