<?xml version="1.0" encoding="utf-8"?>
<!-- Generator: Adobe Illustrator 22.0.1, SVG Export Plug-In . SVG Version: 6.00 Build 0)  -->
<svg version="1.1" id="图层_1" xmlns="http://www.w3.org/2000/svg" xmlns:xlink="http://www.w3.org/1999/xlink" x="0px" y="0px"
	 viewBox="0 0 737.1 715" style="enable-background:new 0 0 737.1 715;" xml:space="preserve">
<style type="text/css">
	.st0{clip-path:url(#SVGID_2_);fill:#58A3DA;}
	.st1{fill:#58A3DA;}
</style>
<g>
	<g>
		<defs>
			<rect id="SVGID_1_" x="64.7" y="2.3" width="613.9" height="713.8"/>
		</defs>
		<clipPath id="SVGID_2_">
			<use xlink:href="#SVGID_1_"  style="overflow:visible;"/>
		</clipPath>
		<path class="st0" d="M670.3,82c-0.7-7.5-5.2-14.1-11.9-17.6C580.2,23.5,488.7,2.9,386.6,2.9c-5.2,0-10.3,0.2-15.5,0.3v0.1
			C366,3.1,361,2.9,355.8,2.9C253.7,2.9,162.2,23.6,84,64.4c-6.7,3.5-11.1,10.1-11.9,17.7c-1,11.2-25.9,277.6,21.5,419.8
			c0.9,4,36.7,134,277.6,213.2C612,635.9,647.8,505.9,648.8,501.9C696.1,359.7,671.3,93.3,670.3,82L670.3,82z M606,489.3
			c-0.3,1.1-32.4,107.3-234.8,178.5c-202.4-71.1-234.4-177.3-234.8-178.5C97,371.2,111.2,152.3,115.5,98.4
			c69.4-33.8,150.2-51,240.3-51c5.2,0,10.3,0.4,15.4,0.5h0c5.2-0.2,10.2-0.5,15.4-0.5c90.1,0,170.9,17.2,240.3,51
			C631.2,152.3,645.4,371.1,606,489.3L606,489.3z M606,489.3"/>
	</g>
	<path class="st1" d="M506.5,206.2L318.4,394l-82.5-82.9c-8.7-8.8-22.9-8.7-31.5-0.1c-8.8,8.7-8.8,22.8-0.1,31.5l95.2,95.6
		c2.8,2.9,6.3,4.4,9.8,5.4c3.3,1.7,6.7,3,10.3,3c5.7,0,11.4-2.2,15.8-6.5l202.6-202.2c8.7-8.6,8.7-22.8,0-31.5
		C529.3,197.5,515.2,197.5,506.5,206.2L506.5,206.2z M506.5,206.2"/>
</g>
</svg>
