<?xml version="1.0" encoding="utf-8"?>
<!-- Generator: Adobe Illustrator 22.0.1, SVG Export Plug-In . SVG Version: 6.00 Build 0)  -->
<svg version="1.1" id="图层_1" xmlns="http://www.w3.org/2000/svg" xmlns:xlink="http://www.w3.org/1999/xlink" x="0px" y="0px"
	 viewBox="0 0 695.5 721.1" style="enable-background:new 0 0 695.5 721.1;" xml:space="preserve">
<style type="text/css">
	.st0{fill:#58A3DA;}
</style>
<g>
	<path class="st0" d="M594.1,270.4h-22.4v-44.8c0-123.7-100.3-224-224-224c-123.7,0-224,100.3-224,224v44.8h-22.4
		c-24.7,0-44.8,20.1-44.8,44.8v358.4c0,24.7,20.1,44.8,44.8,44.8h492.8c24.7,0,44.8-20.1,44.8-44.8V315.2
		C638.9,290.5,618.8,270.4,594.1,270.4L594.1,270.4z M168.5,225.6c0-98.8,80.4-179.2,179.2-179.2s179.2,80.4,179.2,179.2v44.8H168.5
		V225.6z M594.1,673.6H101.3V315.2h492.8V673.6z M594.1,673.6"/>
	<path class="st0" d="M347.7,404.8c-12.4,0-22.4,10-22.4,22.4v134.4c0,12.4,10,22.4,22.4,22.4c12.4,0,22.4-10,22.4-22.4V427.2
		C370.1,414.8,360.1,404.8,347.7,404.8L347.7,404.8z M347.7,404.8"/>
</g>
</svg>
